<?xml version="1.0" encoding="UTF-8"?>
<svg xmlns="http://www.w3.org/2000/svg" width="560" height="240" viewBox="330 104 560 240">
  <g fill="#FFFFFF"><rect x="366.00" y="229.00" width="18" height="18" rx="1.8" ry="1.8"/><rect x="398.00" y="229.00" width="18" height="18" rx="1.8" ry="1.8"/><rect x="398.00" y="199.00" width="18" height="18" rx="1.8" ry="1.8"/><rect x="430.00" y="229.00" width="18" height="18" rx="1.8" ry="1.8"/><rect x="430.00" y="199.00" width="18" height="18" rx="1.8" ry="1.8"/><rect x="430.00" y="169.00" width="18" height="18" rx="1.8" ry="1.8"/><rect x="462.00" y="229.00" width="18" height="18" rx="1.8" ry="1.8"/><rect x="462.00" y="199.00" width="18" height="18" rx="1.8" ry="1.8"/><rect x="462.00" y="169.00" width="18" height="18" rx="1.8" ry="1.8"/><rect x="462.00" y="139.00" width="18" height="18" rx="1.8" ry="1.8"/></g>
  <text x="514.00" y="247.00" fill="#FFFFFF" font-size="128"
        font-family="SF Pro Display, SF Pro Text, -apple-system, BlinkMacSystemFont, Inter, Helvetica Neue, Arial, sans-serif" font-weight="600" letter-spacing="-1">iTec</text>
  <text x="514.00" y="311.00" fill="#D4DEE2" font-size="58"
        font-family="SF Pro Display, SF Pro Text, -apple-system, BlinkMacSystemFont, Inter, Helvetica Neue, Arial, sans-serif" font-weight="400">Soluciona.</text>
</svg>
